<?xml version="1.0" standalone="no"?>
<!DOCTYPE svg PUBLIC "-//W3C//DTD SVG 20010904//EN"
 "http://www.w3.org/TR/2001/REC-SVG-20010904/DTD/svg10.dtd">
<svg version="1.0" xmlns="http://www.w3.org/2000/svg"
 width="260.000000pt" height="260.000000pt" viewBox="0 0 260.000000 260.000000"
 preserveAspectRatio="xMidYMid meet">
<metadata>
Created by potrace 1.11, written by Peter Selinger 2001-2013
</metadata>
<g transform="translate(0.000000,260.000000) scale(0.100000,-0.100000)"
fill="#000000" stroke="none">
<path d="M1150 2595 c-8 -2 -49 -9 -90 -16 -41 -7 -77 -13 -80 -14 -306 -77
-551 -239 -742 -490 -25 -33 -54 -76 -64 -95 -11 -19 -22 -37 -25 -40 -9 -8
-66 -131 -88 -190 -54 -144 -61 -199 -61 -451 0 -219 2 -244 24 -330 45 -172
147 -374 248 -490 101 -115 175 -183 276 -252 89 -60 152 -93 251 -133 90 -37
210 -68 312 -83 67 -9 312 -7 364 3 17 3 46 9 65 13 52 9 49 9 136 36 265 84
480 241 666 486 15 20 28 41 28 48 0 6 4 13 9 15 15 5 97 172 125 253 55 159
71 256 71 430 0 186 -17 288 -73 445 -64 180 -156 326 -306 482 -42 44 -199
168 -213 168 -6 0 -13 4 -15 9 -5 13 -143 84 -223 114 -73 28 -168 55 -220 64
-16 2 -41 7 -55 9 -28 6 -297 13 -320 9z"/>
</g>
</svg>
